<svg class="css-5gvpa4" viewBox="0 0 19 15" xmlns="http://www.w3.org/2000/svg"><path d="M12.923 0c1.51-.025 2.314.512 3.081 1.19.652-.054 1.499-.407 1.997-.652l.485-.26c-.285.748-.67 1.334-1.265 1.779-.131.1-.262.234-.427.297v.009c.845-.009 1.543-.381 2.206-.58v.008c-.348.537-.82 1.083-1.322 1.476-.203.156-.406.311-.609.47.011.87-.013 1.701-.18 2.434-.974 4.256-3.553 7.144-7.636 8.383-1.467.444-3.836.626-5.516.22-.833-.2-1.586-.428-2.292-.729a9.46 9.46 0 0 1-1.103-.551c-.114-.07-.228-.136-.342-.205.379.011.822.113 1.246.046.383-.06.759-.043 1.112-.118.882-.188 1.665-.44 2.34-.823.327-.185.823-.404 1.055-.673a3.346 3.346 0 0 1-1.16-.202c-1.261-.433-1.995-1.23-2.472-2.426.382.04 1.482.14 1.74-.072-.481-.026-.944-.297-1.275-.5C1.572 7.905.745 6.872.751 5.277c.133.06.266.124.4.185.254.104.513.159.817.222.129.023.385.099.533.044h-.02c-.195-.22-.515-.37-.713-.607-.65-.788-1.26-1.998-.874-3.439.098-.366.253-.69.418-.987l.02.009c.075.153.244.268.351.395a7.04 7.04 0 0 0 1.16 1.08c1.424 1.083 2.706 1.747 4.764 2.24.523.125 1.126.22 1.75.223-.175-.497-.119-1.3.02-1.782.346-1.206 1.1-2.078 2.206-2.543.264-.113.557-.194.865-.26.158-.018.317-.035.475-.055"/></svg>