<svg viewBox="0 0 17 16" xmlns="http://www.w3.org/2000/svg"><title>icon-linkedin</title><g id="Alumni" fill="currentColor" fill-rule="evenodd"><g id="Alumni---Profile" transform="translate(-332 -770)" fill="currentColor" fill-rule="nonzero"><g id="Group-8" transform="translate(175 186)"><g id="Group" transform="translate(108 584)"><path d="M52.583 16h-3.319V5.318h3.32V16zm-1.66-12.14C49.86 3.86 49 2.983 49 1.922a1.922 1.922 0 0 1 3.844 0c0 1.061-.86 1.94-1.922 1.94zM65.005 16h-3.312v-5.2c0-1.24-.025-2.829-1.726-2.829-1.725 0-1.99 1.347-1.99 2.74V16h-3.315V5.318h3.183v1.457h.047c.443-.84 1.525-1.725 3.14-1.725 3.358 0 3.977 2.21 3.977 5.082V16h-.004z" id="icon-linkedin"/></g></g></g></g></svg>