<svg viewBox="0 0 22 16" xmlns="http://www.w3.org/2000/svg"><title>icon-email</title><g id="Alumni" fill="currentColor" fill-rule="evenodd"><g id="Alumni---Profile" transform="translate(-377 -770)" fill="currentColor" fill-rule="nonzero"><g id="Group-8" transform="translate(175 186)"><g id="Group" transform="translate(108 584)"><path d="M114.984 5.283a.252.252 0 0 1 .405.196V14c0 1.104-.898 2-2.005 2H96.005A2.003 2.003 0 0 1 94 14V5.483a.25.25 0 0 1 .405-.196c.936.726 2.177 1.646 6.438 4.734.881.641 2.368 1.991 3.851 1.983 1.492.013 3.008-1.367 3.856-1.983 4.261-3.088 5.498-4.013 6.434-4.738zm-10.29 5.384c.97.016 2.365-1.217 3.067-1.725 5.543-4.013 5.965-4.363 7.244-5.363a.996.996 0 0 0 .384-.787V2c0-1.104-.898-2-2.005-2H96.005A2.003 2.003 0 0 0 94 2v.792c0 .308.142.596.384.787 1.279.996 1.7 1.35 7.244 5.363.702.508 2.097 1.741 3.066 1.725z" id="icon-email"/></g></g></g></g></svg>