<svg class="css-5gvpa4" viewBox="0 0 17 17" xmlns="http://www.w3.org/2000/svg"><path d="M8.5 0a8.5 8.5 0 1 0 0 17 8.5 8.5 0 0 0 0-17zm5.048 13.548a7.117 7.117 0 0 1-2.927 1.77v-1.273c0-.67-.23-1.162-.69-1.478a5.983 5.983 0 0 0 1.556-.332c.27-.094.51-.206.723-.336.213-.13.418-.299.615-.506.196-.208.36-.443.494-.706.132-.263.238-.578.315-.946a5.91 5.91 0 0 0 .116-1.216c0-.858-.28-1.588-.838-2.192.254-.664.227-1.386-.083-2.166l-.208-.025c-.144-.017-.402.044-.776.183-.373.138-.793.365-1.257.68a7.637 7.637 0 0 0-2.05-.274c-.715 0-1.395.092-2.043.274a7.11 7.11 0 0 0-.834-.494 4.295 4.295 0 0 0-.63-.265 2.164 2.164 0 0 0-.702-.096.53.53 0 0 0-.083.017c-.31.786-.338 1.508-.083 2.166-.56.604-.839 1.334-.839 2.192 0 .443.04.848.117 1.216.077.368.182.683.315.946.133.263.297.498.494.706.196.207.401.376.614.506.213.13.454.242.722.336.269.094.523.166.764.216.24.05.505.089.793.116-.454.31-.68.803-.68 1.478v1.299a7.095 7.095 0 0 1-3.01-1.796A7.116 7.116 0 0 1 1.36 8.5a7.117 7.117 0 0 1 2.09-5.048 7.116 7.116 0 0 1 5.049-2.09 7.117 7.117 0 0 1 5.048 2.09 7.116 7.116 0 0 1 2.09 5.048 7.116 7.116 0 0 1-2.09 5.048z"/></svg>